<svg width="36" height="36" viewBox="0 0 36 36" fill="none" xmlns="http://www.w3.org/2000/svg">
<path d="M18 30.0002C17.575 30.0002 17.219 29.8562 16.932 29.5682C16.644 29.2812 16.5 28.9252 16.5 28.5002V11.7377L9.18748 19.0502C8.88748 19.3502 8.53098 19.5002 8.11798 19.5002C7.70598 19.5002 7.34998 19.3502 7.04998 19.0502C6.74998 18.7502 6.59998 18.4002 6.59998 18.0002C6.59998 17.6002 6.74998 17.2502 7.04998 16.9502L16.95 7.05019C17.1 6.90019 17.2625 6.7937 17.4375 6.7307C17.6125 6.6687 17.8 6.6377 18 6.6377C18.2 6.6377 18.394 6.6687 18.582 6.7307C18.769 6.7937 18.925 6.90019 19.05 7.05019L28.95 16.9502C29.25 17.2502 29.4 17.6002 29.4 18.0002C29.4 18.4002 29.25 18.7502 28.95 19.0502C28.65 19.3502 28.2935 19.5002 27.8805 19.5002C27.4685 19.5002 27.1125 19.3502 26.8125 19.0502L19.5 11.7377V28.5002C19.5 28.9252 19.3565 29.2812 19.0695 29.5682C18.7815 29.8562 18.425 30.0002 18 30.0002Z" fill="black"/>
</svg>
